<svg id="Layer_1" data-name="Layer 1" xmlns="http://www.w3.org/2000/svg" viewBox="0 0 133.82 112.82"><defs><style>.cls-1{fill:#603813;}.cls-2,.cls-3{fill:#42210b;}.cls-3{stroke:#42210b;stroke-miterlimit:10;stroke-width:2px;}</style></defs><path class="cls-1" d="M195.94,188.28c-16.93,0-36.41-6.66-53.44-18.26-28.57-19.46-47-60-35.83-78.77.34-.57.61-1,.78-1.21,5.62-8,18.1-12.58,34.24-12.58,18.61,0,38.44,5.94,53.05,15.89,16.4,11.17,29.06,25.7,35.66,40.9,6.52,15,6.3,28.93-.62,39.1C223.22,183,211.2,188.28,195.94,188.28Z" transform="translate(-102.3 -76.46)"/><path class="cls-2" d="M141.69,78.46c18.42,0,38,5.88,52.48,15.72,16.25,11.06,28.79,25.44,35.31,40.47,6.39,14.72,6.2,28.26-.53,38.13-6.36,9.35-18.09,14.5-33,14.5-16.73,0-36-6.59-52.87-18.08-28.2-19.21-46.47-59-35.54-77.44.24-.41.49-.78.74-1.15,5.43-7.72,17.61-12.15,33.42-12.15h0m0-2c-15.48,0-28.88,4.22-35,13-.18.25-.48.68-.83,1.28-11.85,20,7.79,60.8,36.13,80.11,18,12.23,37.42,18.43,54,18.43,15,0,27.66-5.09,34.66-15.37,14.74-21.63-1.07-58.07-35.3-81.39C179.83,82,159.4,76.46,141.69,76.46Z" transform="translate(-102.3 -76.46)"/><path class="cls-3" d="M114.24,91.13c18,27.2,36.51,38.56,50.47,43.83,11.81,4.46,22,5.19,36.81,14.89,17.43,11.45,24.83,24.67,26.59,23.47,2.07-1.42-4.17-22.59-21.35-37.38-15.32-13.2-27.73-11.31-54.31-22.78A191.69,191.69,0,0,1,114.24,91.13Z" transform="translate(-102.3 -76.46)"/></svg>